# xmcd CD database file
#
# Track frame offsets:
#	150
#	13097
#	26676
#	39055
#	51836
#	64907
#	77035
#	89142
#	101748
#	116031
#	129526
#	142573
#	155281
#	167769
#	179629
#	193715
#	205609
#	219384
#	231307
#	245562
#
# Disc length: 3415 seconds
#
# Revision: 0
# Processed by: cddbd v1.5.1PL0 Copyright (c) Steve Scherf et al.
# Submitted via: CDex 1.51
#
DISCID=160d5514
DTITLE=Travis, Merle - Famous Country Music Makers
DYEAR=2004
DGENRE=Country
TTITLE0=Sixteen Tons
TTITLE1=Divorce Me C.O.D.
TTITLE2=Missouri
TTITLE3=Dark As A Dungeon
TTITLE4=Sweet Temptation
TTITLE5=No Vacancy
TTITLE6=Nine Pound Hammer
TTITLE7=What A Shame
TTITLE8=Over By Number Nine
TTITLE9=So Round, So Firm, So Fully Packed!
TTITLE10=I Am A Pilgrim
TTITLE11=Crazy Boogie
TTITLE12=Steel Guitar Rag
TTITLE13=Cincinnati Lou
TTITLE14=John Henry
TTITLE15=Fat Gal
TTITLE16=Merle's Boogie Woogie
TTITLE17=Blues, Stay Away From Me
TTITLE18=Start Even
TTITLE19=Done Rovin'
EXTD=YEAR: 2004
EXTT0=
EXTT1=
EXTT2=
EXTT3=
EXTT4=
EXTT5=
EXTT6=
EXTT7=
EXTT8=
EXTT9=
EXTT10=
EXTT11=
EXTT12=
EXTT13=
EXTT14=
EXTT15=
EXTT16=
EXTT17=
EXTT18=
EXTT19=
PLAYORDER=
